<svg width="24" height="24" viewBox="0 0 24 24" fill="none" xmlns="http://www.w3.org/2000/svg">
<g clip-path="url(#clip0_1_1187)">
<path fill-rule="evenodd" clip-rule="evenodd" d="M14.958 7.40975C17.2465 9.80624 17.159 13.6042 14.7626 15.8928C12.3661 18.1813 8.5681 18.0939 6.27954 15.6974C3.99097 13.3009 4.07846 9.50292 6.47494 7.21435C8.87142 4.92578 12.6694 5.01327 14.958 7.40975ZM16.8243 16.6038C19.3384 13.5224 19.2219 8.97887 16.4044 6.02848C13.353 2.83317 8.28898 2.71652 5.09367 5.76794C1.89836 8.81936 1.78171 13.8833 4.83313 17.0787C7.65066 20.029 12.184 20.3546 15.3779 17.9851L17.4925 20.1994C17.874 20.5988 18.507 20.6134 18.9064 20.232C19.3058 19.8506 19.3204 19.2176 18.9389 18.8182L16.8243 16.6038Z" fill="#B2B2B2"/>
</g>
<defs>
<clipPath id="clip0_1_1187">
<rect width="24" height="24" fill="white"/>
</clipPath>
</defs>
</svg>
