<svg width="24" height="24" viewBox="0 0 24 24" fill="none" xmlns="http://www.w3.org/2000/svg">
<rect width="1440" height="900" transform="translate(-1075.5 -39)" fill="#FAFAFA"/>
<g filter="url(#filter0_dd_1_970)">
<path d="M12.0015 22C13.3066 22 14.3745 21.0769 14.3745 19.9487H9.62843C9.62843 20.4928 9.87845 21.0145 10.3235 21.3992C10.7685 21.7839 11.3721 22 12.0015 22ZM19.1205 15.8462V10.7179C19.1205 7.56923 17.1747 4.93333 13.7812 4.2359V3.53846C13.7812 2.68718 12.9863 2 12.0015 2C11.0167 2 10.2217 2.68718 10.2217 3.53846V4.2359C6.8164 4.93333 4.88238 7.55897 4.88238 10.7179V15.8462L3.35177 17.1692C2.60427 17.8154 3.12634 18.9231 4.18233 18.9231H19.8087C20.8647 18.9231 21.3987 17.8154 20.6512 17.1692L19.1205 15.8462Z" fill="#B2B2B2"/>
<circle cx="17" cy="7" r="4.5" fill="#FF5151" stroke="white"/>
</g>
<defs>
<filter id="filter0_dd_1_970" x="-844.5" y="-33" width="1206" height="99" filterUnits="userSpaceOnUse" color-interpolation-filters="sRGB">
<feFlood flood-opacity="0" result="BackgroundImageFix"/>
<feColorMatrix in="SourceAlpha" type="matrix" values="0 0 0 0 0 0 0 0 0 0 0 0 0 0 0 0 0 0 127 0" result="hardAlpha"/>
<feOffset dy="4"/>
<feGaussianBlur stdDeviation="2"/>
<feComposite in2="hardAlpha" operator="out"/>
<feColorMatrix type="matrix" values="0 0 0 0 0 0 0 0 0 0 0 0 0 0 0 0 0 0 0.25 0"/>
<feBlend mode="normal" in2="BackgroundImageFix" result="effect1_dropShadow_1_970"/>
<feColorMatrix in="SourceAlpha" type="matrix" values="0 0 0 0 0 0 0 0 0 0 0 0 0 0 0 0 0 0 127 0" result="hardAlpha"/>
<feOffset dy="4"/>
<feGaussianBlur stdDeviation="2"/>
<feComposite in2="hardAlpha" operator="out"/>
<feColorMatrix type="matrix" values="0 0 0 0 0 0 0 0 0 0 0 0 0 0 0 0 0 0 0.25 0"/>
<feBlend mode="normal" in2="effect1_dropShadow_1_970" result="effect2_dropShadow_1_970"/>
<feBlend mode="normal" in="SourceGraphic" in2="effect2_dropShadow_1_970" result="shape"/>
</filter>
</defs>
</svg>
