<svg width="117" height="44" viewBox="0 0 117 44" fill="none" xmlns="http://www.w3.org/2000/svg">
<rect width="1440" height="900" transform="translate(-470.63 -365.92) scale(1.00348)" fill="#FAFAFA"/>
<rect x="-176.112" y="-42.3007" width="312.084" height="189.66" rx="9.5" fill="white"/>
<rect x="-176.112" y="-42.3007" width="312.084" height="189.66" rx="9.5" stroke="#E0E0E0"/>
<path d="M1.00348 42.9965C1.00348 42.9965 16.3387 24.6416 30.1043 21.9235C40.5715 19.8567 46.6491 27.0336 57.1981 25.4357C73.5325 22.9613 76.6614 5.28683 92.8215 1.85402C101.83 -0.0595405 115.901 1.85397 115.901 1.85397" stroke="#FF5151" stroke-width="2" stroke-linecap="round"/>
<path d="M30.606 21.7705C16.8405 24.4886 1.50521 42.8435 1.50521 42.8435V70.0904H116.403V1.70098C116.403 1.70098 102.331 -0.212536 93.3232 1.70103C77.1631 5.13384 74.0342 22.8083 57.6999 25.2827C47.1509 26.8806 41.0732 19.7037 30.606 21.7705Z" fill="url(#paint0_linear_1_970)"/>
<path d="M46.4409 0.519394C46.374 0.519394 46.3171 0.49598 46.2703 0.449151C46.2234 0.402322 46.2 0.345458 46.2 0.27856V-1.67822H44.2734C44.2065 -1.67822 44.1496 -1.70163 44.1028 -1.74846C44.0559 -1.79529 44.0325 -1.85215 44.0325 -1.91905V-2.45089C44.0325 -2.52448 44.0559 -2.58135 44.1028 -2.62149C44.1496 -2.66831 44.2065 -2.69173 44.2734 -2.69173H46.2V-4.59833C46.2 -4.66523 46.2234 -4.72209 46.2703 -4.76892C46.3171 -4.81575 46.374 -4.83917 46.4409 -4.83917H47.0229C47.0965 -4.83917 47.1533 -4.81575 47.1935 -4.76892C47.2403 -4.72209 47.2637 -4.66523 47.2637 -4.59833V-2.69173H49.1904C49.2573 -2.69173 49.3141 -2.66831 49.361 -2.62149C49.4078 -2.58135 49.4312 -2.52448 49.4312 -2.45089V-1.91905C49.4312 -1.85215 49.4078 -1.79529 49.361 -1.74846C49.3141 -1.70163 49.2573 -1.67822 49.1904 -1.67822H47.2637V0.27856C47.2637 0.345458 47.2403 0.402322 47.1935 0.449151C47.1533 0.49598 47.0965 0.519394 47.0229 0.519394H46.4409ZM50.2821 0.850541C50.2152 0.850541 50.1584 0.827127 50.1115 0.780298C50.0647 0.733469 50.0413 0.676605 50.0413 0.609707V0.0979344C50.0413 0.0377258 50.0547 -0.0325175 50.0814 -0.112795C50.1149 -0.199763 50.1851 -0.286731 50.2922 -0.373699L51.8777 -1.94916C52.3192 -2.29703 52.6738 -2.59138 52.9413 -2.83221C53.2156 -3.07974 53.413 -3.30385 53.5334 -3.50454C53.6605 -3.71193 53.7241 -3.91597 53.7241 -4.11666C53.7241 -4.41771 53.6404 -4.66189 53.4732 -4.8492C53.3126 -5.03652 53.0551 -5.13017 52.7005 -5.13017C52.4664 -5.13017 52.269 -5.08 52.1085 -4.97965C51.9479 -4.886 51.8208 -4.75889 51.7271 -4.59833C51.6402 -4.43778 51.58 -4.2605 51.5465 -4.06649C51.5331 -3.97952 51.4963 -3.91931 51.4361 -3.88586C51.3759 -3.85242 51.3157 -3.83569 51.2555 -3.83569H50.3624C50.3022 -3.83569 50.252 -3.85576 50.2119 -3.8959C50.1718 -3.93604 50.1517 -3.98287 50.1517 -4.03639C50.1584 -4.32405 50.2186 -4.60168 50.3323 -4.86927C50.446 -5.14355 50.6099 -5.38439 50.824 -5.59177C51.0448 -5.80585 51.3124 -5.97644 51.6268 -6.10355C51.9412 -6.23065 52.2958 -6.29421 52.6905 -6.29421C53.2457 -6.29421 53.704 -6.20055 54.0652 -6.01323C54.4332 -5.82592 54.7075 -5.5717 54.8881 -5.25059C55.0754 -4.92948 55.1691 -4.56823 55.1691 -4.16684C55.1691 -3.85242 55.1089 -3.56141 54.9884 -3.29381C54.868 -3.03291 54.6941 -2.7787 54.4666 -2.53117C54.2392 -2.29034 53.9649 -2.04281 53.6438 -1.7886L52.2188 -0.343595H55.0787C55.1523 -0.343595 55.2092 -0.320181 55.2493 -0.273352C55.2962 -0.233213 55.3196 -0.176349 55.3196 -0.102761V0.609707C55.3196 0.676605 55.2962 0.733469 55.2493 0.780298C55.2092 0.827127 55.1523 0.850541 55.0787 0.850541H50.2821ZM56.9065 0.850541C56.766 0.850541 56.6958 0.783643 56.6958 0.649846C56.6958 0.609707 56.7091 0.572913 56.7359 0.539464L61.683 -5.98313C61.7299 -6.04334 61.7767 -6.09017 61.8235 -6.12362C61.8703 -6.15707 61.9372 -6.17379 62.0242 -6.17379H62.5561C62.6965 -6.17379 62.7668 -6.10689 62.7668 -5.97309C62.7668 -5.93296 62.7534 -5.89616 62.7266 -5.86271L57.7795 0.659881C57.7327 0.720089 57.6859 0.766918 57.639 0.800367C57.5989 0.833817 57.532 0.850541 57.4383 0.850541H56.9065ZM61.7332 0.91075C61.285 0.91075 60.9304 0.786988 60.6695 0.539464C60.4086 0.29194 60.2648 -0.0325175 60.238 -0.433908C60.2313 -0.607844 60.228 -0.758365 60.228 -0.885472C60.228 -1.01258 60.2313 -1.16979 60.238 -1.35711C60.2648 -1.7585 60.4019 -2.08295 60.6494 -2.33048C60.9037 -2.578 61.2649 -2.70176 61.7332 -2.70176C62.2082 -2.70176 62.5694 -2.578 62.817 -2.33048C63.0712 -2.08295 63.2083 -1.7585 63.2284 -1.35711C63.2418 -1.16979 63.2485 -1.01258 63.2485 -0.885472C63.2485 -0.758365 63.2418 -0.607844 63.2284 -0.433908C63.2083 -0.0325175 63.0645 0.29194 62.7969 0.539464C62.536 0.786988 62.1814 0.91075 61.7332 0.91075ZM61.7332 0.128039C61.8804 0.128039 61.9941 0.0979344 62.0744 0.0377259C62.1614 -0.0224827 62.2249 -0.0994158 62.265 -0.193074C62.3052 -0.286731 62.3253 -0.380389 62.3253 -0.474047C62.3386 -0.641293 62.3453 -0.781779 62.3453 -0.895507C62.3453 -1.01592 62.3386 -1.15307 62.3253 -1.30693C62.3186 -1.4608 62.2717 -1.60128 62.1848 -1.72839C62.0978 -1.86219 61.9473 -1.92909 61.7332 -1.92909C61.5258 -1.92909 61.3786 -1.86219 61.2917 -1.72839C61.2047 -1.60128 61.1545 -1.4608 61.1412 -1.30693C61.1345 -1.15307 61.1311 -1.01592 61.1311 -0.895507C61.1311 -0.781779 61.1345 -0.641293 61.1412 -0.474047C61.1545 -0.380389 61.1779 -0.286731 61.2114 -0.193074C61.2515 -0.0994158 61.3117 -0.0224827 61.392 0.0377259C61.479 0.0979344 61.5927 0.128039 61.7332 0.128039ZM57.7293 -2.64155C57.2811 -2.64155 56.9266 -2.75863 56.6657 -2.99277C56.4047 -3.22692 56.2609 -3.54468 56.2342 -3.94607C56.2275 -4.12001 56.2241 -4.27053 56.2241 -4.39764C56.2241 -4.53143 56.2275 -4.69199 56.2342 -4.87931C56.2609 -5.2807 56.3981 -5.60515 56.6456 -5.85268C56.8998 -6.1002 57.261 -6.22396 57.7293 -6.22396C58.2043 -6.22396 58.5656 -6.1002 58.8131 -5.85268C59.0673 -5.60515 59.2044 -5.2807 59.2245 -4.87931C59.2379 -4.69199 59.2446 -4.53143 59.2446 -4.39764C59.2446 -4.27053 59.2379 -4.12001 59.2245 -3.94607C59.2044 -3.54468 59.0606 -3.22692 58.793 -2.99277C58.5321 -2.75863 58.1776 -2.64155 57.7293 -2.64155ZM57.7293 -3.38413C57.8765 -3.38413 57.9902 -3.41423 58.0705 -3.47444C58.1575 -3.53465 58.221 -3.61158 58.2612 -3.70524C58.3013 -3.7989 58.3214 -3.8959 58.3214 -3.99625C58.3348 -4.16349 58.3415 -4.30398 58.3415 -4.41771C58.3415 -4.53812 58.3348 -4.67527 58.3214 -4.82913C58.3147 -4.983 58.2679 -5.12349 58.1809 -5.25059C58.0939 -5.3777 57.9434 -5.44125 57.7293 -5.44125C57.5219 -5.44125 57.3748 -5.3777 57.2878 -5.25059C57.2008 -5.12349 57.154 -4.983 57.1473 -4.82913C57.1406 -4.67527 57.1373 -4.53812 57.1373 -4.41771C57.1373 -4.30398 57.1406 -4.16349 57.1473 -3.99625C57.154 -3.8959 57.1741 -3.7989 57.2075 -3.70524C57.2477 -3.61158 57.3079 -3.53465 57.3882 -3.47444C57.4751 -3.41423 57.5888 -3.38413 57.7293 -3.38413Z" fill="#FF5151"/>
<path d="M52.6825 8.87835L54.6894 6.8714M54.6894 6.8714L56.6964 8.87835M54.6894 6.8714V13.8957" stroke="#FF5151" stroke-linecap="round" stroke-linejoin="round"/>
<defs>
<linearGradient id="paint0_linear_1_970" x1="59.2051" y1="-24.2364" x2="81.2815" y2="35.4705" gradientUnits="userSpaceOnUse">
<stop stop-color="#FF5151"/>
<stop offset="1" stop-color="white" stop-opacity="0"/>
</linearGradient>
</defs>
</svg>
